<svg xmlns="http://www.w3.org/2000/svg" viewBox="0 0 1280 760" width="1280" height="760">
<style>
  text { font-family: 'SF Mono', 'Fira Code', 'Cascadia Code', 'Courier New', 'Microsoft YaHei', 'SimHei', monospace; }
</style>
<defs>
  <pattern id="grid" width="30" height="30" patternUnits="userSpaceOnUse">
    <path d="M 30 0 L 0 0 0 30" fill="none" stroke="#112240" stroke-width="0.5"/>
  </pattern>
  <marker id="arrow-cyan" markerWidth="8" markerHeight="6" refX="7" refY="3" orient="auto">
    <polygon points="0 0, 8 3, 0 6" fill="#00b4d8"/>
  </marker>
  <marker id="arrow-green" markerWidth="8" markerHeight="6" refX="7" refY="3" orient="auto">
    <polygon points="0 0, 8 3, 0 6" fill="#06d6a0"/>
  </marker>
  <marker id="arrow-orange" markerWidth="8" markerHeight="6" refX="7" refY="3" orient="auto">
    <polygon points="0 0, 8 3, 0 6" fill="#f77f00"/>
  </marker>
  <marker id="arrow-gray" markerWidth="8" markerHeight="6" refX="7" refY="3" orient="auto">
    <polygon points="0 0, 8 3, 0 6" fill="#48cae4"/>
  </marker>
</defs>
<rect width="1280" height="760" fill="#0a1628"/>
<rect width="1280" height="760" fill="url(#grid)" opacity="0.65"/>
<text x="640" y="42" text-anchor="middle" fill="#caf0f8" font-size="22" font-weight="700" font-family="'SF Mono', 'Fira Code', 'Cascadia Code', 'Courier New', 'Microsoft YaHei', 'SimHei', monospace" letter-spacing="0.04em">AGENT4 CONTRACT DATA FLOW</text>
<text x="640" y="68" text-anchor="middle" fill="#90e0ef" font-size="12" font-family="'SF Mono', 'Fira Code', 'Cascadia Code', 'Courier New', 'Microsoft YaHei', 'SimHei', monospace">结构校验 + ID 链一致性 + 回归证据</text>
<line x1="150" y1="170" x2="265" y2="170" stroke="#00b4d8" stroke-width="1.8" marker-end="url(#arrow-cyan)"/>
<rect x="164.0" y="144" width="88" height="20" rx="4" ry="4" fill="#0a1628" opacity="1"/>
<text x="208" y="158" text-anchor="middle" fill="#48cae4" font-size="10">validated</text>
<line x1="415" y1="170" x2="530" y2="170" stroke="#00b4d8" stroke-width="1.8" marker-end="url(#arrow-cyan)"/>
<rect x="437.0" y="144" width="70" height="20" rx="4" ry="4" fill="#0a1628" opacity="1"/>
<text x="472" y="158" text-anchor="middle" fill="#48cae4" font-size="10">plan()</text>
<line x1="680" y1="170" x2="795" y2="170" stroke="#00b4d8" stroke-width="1.8" marker-end="url(#arrow-cyan)"/>
<rect x="691.0" y="144" width="92" height="20" rx="4" ry="4" fill="#0a1628" opacity="1"/>
<text x="737" y="158" text-anchor="middle" fill="#48cae4" font-size="10">confirmed</text>
<line x1="945" y1="170" x2="1060" y2="170" stroke="#00b4d8" stroke-width="1.8" marker-end="url(#arrow-cyan)"/>
<rect x="958.0" y="144" width="88" height="20" rx="4" ry="4" fill="#0a1628" opacity="1"/>
<text x="1002" y="158" text-anchor="middle" fill="#48cae4" font-size="10">package()</text>
<path d="M 870,210 L 870,285 L 640,285 L 640,330" fill="none" stroke="#06d6a0" stroke-width="1.8" marker-end="url(#arrow-green)"/>
<rect x="720.0" y="261" width="72" height="20" rx="4" ry="4" fill="#0a1628" opacity="1"/>
<text x="756" y="275" text-anchor="middle" fill="#06d6a0" font-size="10">git diff</text>
<path d="M 640,405 L 640,455 L 850,455 L 850,505" fill="none" stroke="#06d6a0" stroke-width="1.8" marker-end="url(#arrow-green)"/>
<rect x="681.0" y="430" width="128" height="20" rx="4" ry="4" fill="#0a1628" opacity="1"/>
<text x="745" y="444" text-anchor="middle" fill="#06d6a0" font-size="10">patchCandidateId</text>
<path d="M 940,540 L 1055,540 L 1055,220 L 1135,220" fill="none" stroke="#06d6a0" stroke-width="1.8" marker-end="url(#arrow-green)"/>
<rect x="989.0" y="308" width="132" height="20" rx="4" ry="4" fill="#0a1628" opacity="1"/>
<text x="1055" y="322" text-anchor="middle" fill="#06d6a0" font-size="10">RegressionResult</text>
<path d="M 1145,250 L 1145,645 L 1190,645" fill="none" stroke="#f77f00" stroke-width="1.8" marker-end="url(#arrow-orange)"/>
<rect x="1109.0" y="438" width="72" height="20" rx="4" ry="4" fill="#0a1628" opacity="1"/>
<text x="1145" y="452" text-anchor="middle" fill="#f77f00" font-size="10">handoff</text>
<path d="M 340,210 L 340,650 L 180,650" fill="none" stroke="#f77f00" stroke-width="1.4" marker-end="url(#arrow-orange)" stroke-dasharray="6,4"/>
<path d="M 605,210 L 605,650 L 180,650" fill="none" stroke="#f77f00" stroke-width="1.4" marker-end="url(#arrow-orange)" stroke-dasharray="6,4"/>
<path d="M 850,585 L 850,650 L 180,650" fill="none" stroke="#f77f00" stroke-width="1.4" marker-end="url(#arrow-orange)" stroke-dasharray="6,4"/>
<rect x="285.0" y="626" width="210" height="20" rx="4" ry="4" fill="#0a1628" opacity="1"/>
<text x="390" y="640" text-anchor="middle" fill="#f77f00" font-size="10">invalid / unsafe -&gt; fail closed</text>
<rect x="30" y="120" width="150" height="90" rx="2" ry="2" fill="#0d1f3c" stroke="#00b4d8" stroke-width="1.2"/>
<text x="105" y="154" text-anchor="middle" fill="#caf0f8" font-size="13" font-weight="700" font-family="'SF Mono', 'Fira Code', 'Cascadia Code', 'Courier New', 'Microsoft YaHei', 'SimHei', monospace">Agent3</text>
<text x="105" y="180" text-anchor="middle" fill="#90e0ef" font-size="10" font-family="'SF Mono', 'Fira Code', 'Cascadia Code', 'Courier New', 'Microsoft YaHei', 'SimHei', monospace">RootCauseBlueprint</text>
<rect x="265" y="120" width="150" height="90" rx="2" ry="2" fill="#0d1f3c" stroke="#00b4d8" stroke-width="1.2"/>
<text x="340" y="154" text-anchor="middle" fill="#caf0f8" font-size="13" font-weight="700" font-family="'SF Mono', 'Fira Code', 'Cascadia Code', 'Courier New', 'Microsoft YaHei', 'SimHei', monospace">validate schema</text>
<text x="340" y="180" text-anchor="middle" fill="#90e0ef" font-size="10" font-family="'SF Mono', 'Fira Code', 'Cascadia Code', 'Courier New', 'Microsoft YaHei', 'SimHei', monospace">root-cause-blueprint</text>
<rect x="530" y="120" width="150" height="90" rx="2" ry="2" fill="#0d1f3c" stroke="#00b4d8" stroke-width="1.2"/>
<text x="605" y="154" text-anchor="middle" fill="#caf0f8" font-size="13" font-weight="700" font-family="'SF Mono', 'Fira Code', 'Cascadia Code', 'Courier New', 'Microsoft YaHei', 'SimHei', monospace">PatchPlan</text>
<text x="605" y="180" text-anchor="middle" fill="#90e0ef" font-size="10" font-family="'SF Mono', 'Fira Code', 'Cascadia Code', 'Courier New', 'Microsoft YaHei', 'SimHei', monospace">blueprintId carried</text>
<rect x="795" y="120" width="150" height="90" rx="2" ry="2" fill="#0d1f3c" stroke="#00b4d8" stroke-width="1.2"/>
<text x="870" y="154" text-anchor="middle" fill="#caf0f8" font-size="13" font-weight="700" font-family="'SF Mono', 'Fira Code', 'Cascadia Code', 'Courier New', 'Microsoft YaHei', 'SimHei', monospace">PatchCandidate</text>
<text x="870" y="180" text-anchor="middle" fill="#90e0ef" font-size="10" font-family="'SF Mono', 'Fira Code', 'Cascadia Code', 'Courier New', 'Microsoft YaHei', 'SimHei', monospace">gitDiff + changedFiles</text>
<rect x="1060" y="120" width="150" height="90" rx="2" ry="2" fill="#0d1f3c" stroke="#00b4d8" stroke-width="1.2"/>
<text x="1135" y="154" text-anchor="middle" fill="#caf0f8" font-size="13" font-weight="700" font-family="'SF Mono', 'Fira Code', 'Cascadia Code', 'Courier New', 'Microsoft YaHei', 'SimHei', monospace">VerifiedPackage</text>
<text x="1135" y="180" text-anchor="middle" fill="#90e0ef" font-size="10" font-family="'SF Mono', 'Fira Code', 'Cascadia Code', 'Courier New', 'Microsoft YaHei', 'SimHei', monospace">embedded artifacts</text>
<rect x="530" y="330" width="220" height="75" rx="2" ry="2" fill="#0d1f3c" stroke="#06d6a0" stroke-width="1.2"/>
<text x="640" y="360" text-anchor="middle" fill="#caf0f8" font-size="12" font-weight="700" font-family="'SF Mono', 'Fira Code', 'Cascadia Code', 'Courier New', 'Microsoft YaHei', 'SimHei', monospace">createPatchCandidateFromDiff</text>
<text x="640" y="384" text-anchor="middle" fill="#90e0ef" font-size="10" font-family="'SF Mono', 'Fira Code', 'Cascadia Code', 'Courier New', 'Microsoft YaHei', 'SimHei', monospace">extract changedFiles from diff</text>
<rect x="760" y="505" width="180" height="80" rx="2" ry="2" fill="#0d1f3c" stroke="#06d6a0" stroke-width="1.2"/>
<text x="850" y="535" text-anchor="middle" fill="#caf0f8" font-size="13" font-weight="700" font-family="'SF Mono', 'Fira Code', 'Cascadia Code', 'Courier New', 'Microsoft YaHei', 'SimHei', monospace">Agent1</text>
<text x="850" y="560" text-anchor="middle" fill="#90e0ef" font-size="10" font-family="'SF Mono', 'Fira Code', 'Cascadia Code', 'Courier New', 'Microsoft YaHei', 'SimHei', monospace">patch_regression</text>
<rect x="40" y="615" width="140" height="70" rx="2" ry="2" fill="#281a0a" stroke="#f77f00" stroke-width="1.2" stroke-dasharray="6,3"/>
<text x="110" y="645" text-anchor="middle" fill="#f77f00" font-size="13" font-weight="700" font-family="'SF Mono', 'Fira Code', 'Cascadia Code', 'Courier New', 'Microsoft YaHei', 'SimHei', monospace">FAIL CLOSED</text>
<text x="110" y="668" text-anchor="middle" fill="#f77f00" font-size="10" font-family="'SF Mono', 'Fira Code', 'Cascadia Code', 'Courier New', 'Microsoft YaHei', 'SimHei', monospace">reject artifact</text>
<rect x="1190" y="610" width="70" height="70" rx="2" ry="2" fill="#0d1f3c" stroke="#f77f00" stroke-width="1.2"/>
<text x="1225" y="640" text-anchor="middle" fill="#caf0f8" font-size="12" font-weight="700" font-family="'SF Mono', 'Fira Code', 'Cascadia Code', 'Courier New', 'Microsoft YaHei', 'SimHei', monospace">Agent5</text>
<text x="1225" y="663" text-anchor="middle" fill="#90e0ef" font-size="10" font-family="'SF Mono', 'Fira Code', 'Cascadia Code', 'Courier New', 'Microsoft YaHei', 'SimHei', monospace">PR</text>
<rect x="250" y="250" width="760" height="46" rx="2" ry="2" fill="#081225" stroke="#48cae4" stroke-width="1" stroke-dasharray="5,3"/>
<text x="630" y="278" text-anchor="middle" fill="#90e0ef" font-size="12" font-family="'SF Mono', 'Fira Code', 'Cascadia Code', 'Courier New', 'Microsoft YaHei', 'SimHei', monospace">ID 链：blueprintId -&gt; patchPlanId -&gt; patchCandidateId，打包前逐项强制一致</text>
<rect x="955" y="690" width="300" height="50" fill="#0d1f3c" stroke="#00b4d8" stroke-width="1"/>
<text x="1105" y="710" text-anchor="middle" fill="#90e0ef" font-size="9" font-family="'SF Mono', 'Fira Code', 'Cascadia Code', 'Courier New', 'Microsoft YaHei', 'SimHei', monospace">DATA CONTRACT DIAGRAM</text>
<text x="1105" y="732" text-anchor="middle" fill="#caf0f8" font-size="13" font-weight="700" font-family="'SF Mono', 'Fira Code', 'Cascadia Code', 'Courier New', 'Microsoft YaHei', 'SimHei', monospace">opencode-agent4</text>
</svg>
