<svg xmlns="http://www.w3.org/2000/svg" viewBox="0 0 1280 820" width="1280" height="820">
<style>
  text { font-family: -apple-system, BlinkMacSystemFont, 'Segoe UI', 'Helvetica Neue', Arial, 'PingFang SC', 'Microsoft YaHei', 'Microsoft JhengHei', 'SimHei', sans-serif; }
</style>
<defs>
  <marker id="arrow-blue" markerWidth="10" markerHeight="7" refX="9" refY="3.5" orient="auto">
    <polygon points="0 0, 10 3.5, 0 7" fill="#2563eb"/>
  </marker>
  <marker id="arrow-green" markerWidth="10" markerHeight="7" refX="9" refY="3.5" orient="auto">
    <polygon points="0 0, 10 3.5, 0 7" fill="#16a34a"/>
  </marker>
  <marker id="arrow-purple" markerWidth="10" markerHeight="7" refX="9" refY="3.5" orient="auto">
    <polygon points="0 0, 10 3.5, 0 7" fill="#9333ea"/>
  </marker>
  <marker id="arrow-orange" markerWidth="10" markerHeight="7" refX="9" refY="3.5" orient="auto">
    <polygon points="0 0, 10 3.5, 0 7" fill="#ea580c"/>
  </marker>
  <marker id="arrow-gray" markerWidth="10" markerHeight="7" refX="9" refY="3.5" orient="auto">
    <polygon points="0 0, 10 3.5, 0 7" fill="#6b7280"/>
  </marker>
</defs>
<rect width="1280" height="820" fill="#ffffff"/>
<text x="640" y="42" text-anchor="middle" fill="#111827" font-size="24" font-weight="700">opencode-agent4 系统架构</text>
<text x="640" y="68" text-anchor="middle" fill="#6b7280" font-size="13">从 Agent3 根因蓝图到 Agent5 已验证补丁包的插件化桥梁</text>
<rect x="312" y="108" width="640" height="596" rx="14" ry="14" fill="#f9fafb" stroke="#d1d5db" stroke-width="1.5" stroke-dasharray="7,4"/>
<text x="632" y="136" text-anchor="middle" fill="#111827" font-size="17" font-weight="700">Agent4 OpenCode / Codex 插件包</text>
<line x1="220" y1="220" x2="445" y2="340" stroke="#2563eb" stroke-width="2.2" marker-end="url(#arrow-blue)"/>
<rect x="249.0" y="252" width="142" height="20" rx="4" ry="4" fill="#ffffff" opacity="0.96"/>
<text x="320" y="266" text-anchor="middle" fill="#2563eb" font-size="12">RootCauseBlueprint</text>
<path d="M 707,340 L 1018,250" fill="none" stroke="#16a34a" stroke-width="2.1" marker-end="url(#arrow-green)"/>
<rect x="817.0" y="270" width="126" height="20" rx="4" ry="4" fill="#ffffff" opacity="0.96"/>
<text x="880" y="284" text-anchor="middle" fill="#16a34a" font-size="12">patch_regression</text>
<path d="M 1018,330 L 707,388" fill="none" stroke="#16a34a" stroke-width="2.1" marker-end="url(#arrow-green)"/>
<rect x="792.0" y="346" width="166" height="20" rx="4" ry="4" fill="#ffffff" opacity="0.96"/>
<text x="875" y="360" text-anchor="middle" fill="#16a34a" font-size="12">PatchRegressionResult</text>
<line x1="707" y1="430" x2="1018" y2="565" stroke="#ea580c" stroke-width="2.2" marker-end="url(#arrow-orange)"/>
<rect x="805.0" y="482" width="160" height="20" rx="4" ry="4" fill="#ffffff" opacity="0.96"/>
<text x="885" y="496" text-anchor="middle" fill="#ea580c" font-size="12">VerifiedPatchPackage</text>
<rect x="62" y="170" width="158" height="96" rx="10" ry="10" fill="#eff6ff" stroke="#bfdbfe" stroke-width="1.5"/>
<rect x="62" y="170" width="5" height="96" rx="3" ry="3" fill="#2563eb"/>
<text x="141.0" y="213.0" text-anchor="middle" fill="#111827" font-size="17" font-weight="700">Agent3</text>
<text x="141.0" y="236.0" text-anchor="middle" fill="#6b7280" font-size="12">根因诊断</text>
<rect x="62" y="298" width="158" height="82" rx="8" ry="8" fill="#ffffff" stroke="#d1d5db" stroke-width="1.5"/>
<rect x="62" y="298" width="5" height="82" rx="3" ry="3" fill="#6b7280"/>
<text x="141.0" y="334.0" text-anchor="middle" fill="#111827" font-size="12" font-weight="700">RootCauseBlueprint</text>
<text x="141.0" y="357.0" text-anchor="middle" fill="#6b7280" font-size="12">问题证据 / 根因</text>
<rect x="1018" y="214" width="190" height="116" rx="10" ry="10" fill="#f0fdf4" stroke="#bbf7d0" stroke-width="1.5"/>
<rect x="1018" y="214" width="5" height="116" rx="3" ry="3" fill="#16a34a"/>
<text x="1113.0" y="267.0" text-anchor="middle" fill="#111827" font-size="18" font-weight="700">Agent1</text>
<text x="1113.0" y="290.0" text-anchor="middle" fill="#6b7280" font-size="12">patch_regression</text>
<rect x="1018" y="530" width="190" height="116" rx="10" ry="10" fill="#fff7ed" stroke="#fed7aa" stroke-width="1.5"/>
<rect x="1018" y="530" width="5" height="116" rx="3" ry="3" fill="#ea580c"/>
<text x="1113.0" y="583.0" text-anchor="middle" fill="#111827" font-size="18" font-weight="700">Agent5</text>
<text x="1113.0" y="606.0" text-anchor="middle" fill="#6b7280" font-size="12">PR / 提交材料</text>
<rect x="365" y="170" width="210" height="78" rx="8" ry="8" fill="#ffffff" stroke="#d1d5db" stroke-width="1.5"/>
<rect x="365" y="170" width="5" height="78" rx="3" ry="3" fill="#2563eb"/>
<text x="470.0" y="204.0" text-anchor="middle" fill="#111827" font-size="14" font-weight="700">包元数据</text>
<text x="470.0" y="227.0" text-anchor="middle" fill="#6b7280" font-size="12">package.json / plugin.json</text>
<rect x="620" y="170" width="270" height="78" rx="8" ry="8" fill="#ffffff" stroke="#d1d5db" stroke-width="1.5"/>
<rect x="620" y="170" width="5" height="78" rx="3" ry="3" fill="#2563eb"/>
<text x="755.0" y="204.0" text-anchor="middle" fill="#111827" font-size="14" font-weight="700">OpenCode 插件入口</text>
<text x="755.0" y="227.0" text-anchor="middle" fill="#6b7280" font-size="12">.opencode/plugins/ysclaw-agent4.js</text>
<line x1="575" y1="209" x2="620" y2="209" stroke="#2563eb" stroke-width="1.8" marker-end="url(#arrow-blue)"/>
<rect x="572.0" y="184" width="52" height="20" rx="4" ry="4" fill="#ffffff" opacity="0.96"/>
<text x="598" y="198" text-anchor="middle" fill="#2563eb" font-size="12">main</text>
<rect x="445" y="312" width="262" height="118" rx="10" ry="10" fill="#f0fdf4" stroke="#bbf7d0" stroke-width="1.5"/>
<rect x="445" y="312" width="5" height="118" rx="3" ry="3" fill="#16a34a"/>
<text x="576.0" y="366.0" text-anchor="middle" fill="#111827" font-size="15" font-weight="700">Agent4 Workflow Core</text>
<text x="576.0" y="389.0" text-anchor="middle" fill="#6b7280" font-size="12">/ysclaw-patch-plan / build-patch</text>
<text x="576" y="398" text-anchor="middle" fill="#6b7280" font-size="12">Plan -&gt; Candidate -&gt; Regression -&gt; Package</text>
<path d="M 755,248 L 755,292 L 620,292 L 620,312" fill="none" stroke="#9333ea" stroke-width="1.8" marker-end="url(#arrow-purple)"/>
<rect x="691.0" y="266" width="128" height="20" rx="4" ry="4" fill="#ffffff" opacity="0.96"/>
<text x="755" y="280" text-anchor="middle" fill="#9333ea" font-size="12">config + bootstrap</text>
<rect x="350" y="500" width="165" height="82" rx="8" ry="8" fill="#eff6ff" stroke="#bfdbfe" stroke-width="1.5"/>
<rect x="350" y="500" width="5" height="82" rx="3" ry="3" fill="#2563eb"/>
<text x="432.5" y="536.0" text-anchor="middle" fill="#111827" font-size="14" font-weight="700">Agent4 Skills</text>
<text x="432.5" y="559.0" text-anchor="middle" fill="#6b7280" font-size="12">蓝图 / 计划 / 打包</text>
<rect x="545" y="500" width="185" height="82" rx="8" ry="8" fill="#ffffff" stroke="#d1d5db" stroke-width="1.5"/>
<rect x="545" y="500" width="5" height="82" rx="3" ry="3" fill="#6b7280"/>
<text x="637.5" y="536.0" text-anchor="middle" fill="#111827" font-size="14" font-weight="700">Schemas</text>
<text x="637.5" y="559.0" text-anchor="middle" fill="#6b7280" font-size="12">五类 JSON 契约</text>
<rect x="760" y="500" width="150" height="82" rx="8" ry="8" fill="#fff7ed" stroke="#fed7aa" stroke-width="1.5"/>
<rect x="760" y="500" width="5" height="82" rx="3" ry="3" fill="#ea580c"/>
<text x="835.0" y="536.0" text-anchor="middle" fill="#111827" font-size="14" font-weight="700">Tools</text>
<text x="835.0" y="559.0" text-anchor="middle" fill="#6b7280" font-size="12">validate / package</text>
<rect x="350" y="608" width="165" height="62" rx="8" ry="8" fill="#faf5ff" stroke="#e9d5ff" stroke-width="1.5"/>
<rect x="350" y="608" width="5" height="62" rx="3" ry="3" fill="#9333ea"/>
<text x="432.5" y="634.0" text-anchor="middle" fill="#111827" font-size="14" font-weight="700">Superpowers</text>
<text x="432.5" y="657.0" text-anchor="middle" fill="#6b7280" font-size="12">计划 / TDD / 审查</text>
<rect x="545" y="608" width="185" height="62" rx="8" ry="8" fill="#fef2f2" stroke="#fecaca" stroke-width="1.5"/>
<rect x="545" y="608" width="5" height="62" rx="3" ry="3" fill="#dc2626"/>
<text x="637.5" y="634.0" text-anchor="middle" fill="#111827" font-size="14" font-weight="700">Tests</text>
<text x="637.5" y="657.0" text-anchor="middle" fill="#6b7280" font-size="12">插件 / schema / 安全</text>
<path d="M 515,430 L 432,500" fill="none" stroke="#2563eb" stroke-width="1.5" marker-end="url(#arrow-blue)" stroke-dasharray="4,3"/>
<line x1="610" y1="430" x2="635" y2="500" stroke="#6b7280" stroke-width="1.5" marker-end="url(#arrow-gray)" stroke-dasharray="4,3"/>
<path d="M 687,430 L 835,500" fill="none" stroke="#ea580c" stroke-width="1.5" marker-end="url(#arrow-orange)" stroke-dasharray="4,3"/>
<line x1="432" y1="582" x2="432" y2="608" stroke="#9333ea" stroke-width="1.5" marker-end="url(#arrow-purple)" stroke-dasharray="4,3"/>
<line x1="638" y1="582" x2="638" y2="608" stroke="#dc2626" stroke-width="1.5" marker-end="url(#arrow-gray)" stroke-dasharray="4,3"/>
<rect x="62" y="738" width="650" height="52" rx="8" ry="8" fill="#ffffff" stroke="#e5e7eb"/>
<line x1="92" y1="764" x2="132" y2="764" stroke="#2563eb" stroke-width="2" marker-end="url(#arrow-blue)"/>
<text x="206" y="769" text-anchor="middle" fill="#6b7280" font-size="12">输入 / 加载</text>
<line x1="288" y1="764" x2="328" y2="764" stroke="#16a34a" stroke-width="2" marker-end="url(#arrow-green)"/>
<text x="410" y="769" text-anchor="middle" fill="#6b7280" font-size="12">回归证据</text>
<line x1="500" y1="764" x2="540" y2="764" stroke="#ea580c" stroke-width="2" marker-end="url(#arrow-orange)"/>
<text x="620" y="769" text-anchor="middle" fill="#6b7280" font-size="12">交接输出</text>
</svg>
