<svg xmlns="http://www.w3.org/2000/svg" viewBox="0 0 1200 760" width="1200" height="760">
<style>
  text { font-family: -apple-system, BlinkMacSystemFont, 'Segoe UI', 'Helvetica Neue', Arial, 'PingFang SC', 'Microsoft YaHei', 'Microsoft JhengHei', 'SimHei', sans-serif; }
</style>
<defs>
  <marker id="arrow-oai" markerWidth="10" markerHeight="7" refX="9" refY="3.5" orient="auto">
    <polygon points="0 0, 10 3.5, 0 7" fill="#71717a"/>
  </marker>
  <marker id="arrow-green" markerWidth="10" markerHeight="7" refX="9" refY="3.5" orient="auto">
    <polygon points="0 0, 10 3.5, 0 7" fill="#10a37f"/>
  </marker>
  <marker id="arrow-orange" markerWidth="10" markerHeight="7" refX="9" refY="3.5" orient="auto">
    <polygon points="0 0, 10 3.5, 0 7" fill="#f97316"/>
  </marker>
</defs>
<rect width="1200" height="760" fill="#ffffff"/>
<text x="600" y="44" text-anchor="middle" fill="#0d0d0d" font-size="24" font-weight="700">Agent4 补丁工作流状态机</text>
<text x="600" y="72" text-anchor="middle" fill="#6e6e80" font-size="13">每个阶段都有结构约束、权限或证据门槛</text>
<line x1="140" y1="180" x2="245" y2="180" stroke="#10a37f" stroke-width="1.8" marker-end="url(#arrow-green)"/>
<line x1="405" y1="180" x2="505" y2="180" stroke="#10a37f" stroke-width="1.8" marker-end="url(#arrow-green)"/>
<line x1="665" y1="180" x2="765" y2="180" stroke="#10a37f" stroke-width="1.8" marker-end="url(#arrow-green)"/>
<path d="M 925,180 L 1015,180 L 1015,295 L 925,295" fill="none" stroke="#10a37f" stroke-width="1.8" marker-end="url(#arrow-green)"/>
<line x1="765" y1="295" x2="665" y2="295" stroke="#10a37f" stroke-width="1.8" marker-end="url(#arrow-green)"/>
<line x1="505" y1="295" x2="405" y2="295" stroke="#10a37f" stroke-width="1.8" marker-end="url(#arrow-green)"/>
<path d="M 245,295 L 150,295 L 150,430 L 245,430" fill="none" stroke="#10a37f" stroke-width="1.8" marker-end="url(#arrow-green)"/>
<line x1="405" y1="430" x2="505" y2="430" stroke="#10a37f" stroke-width="1.8" marker-end="url(#arrow-green)"/>
<line x1="665" y1="430" x2="765" y2="430" stroke="#10a37f" stroke-width="1.8" marker-end="url(#arrow-green)"/>
<line x1="925" y1="430" x2="1030" y2="430" stroke="#10a37f" stroke-width="1.8" marker-end="url(#arrow-green)"/>
<path d="M 325,220 L 325,590 L 500,590" fill="none" stroke="#f97316" stroke-width="1.5" marker-end="url(#arrow-orange)" stroke-dasharray="5,3"/>
<path d="M 845,470 L 845,590 L 660,590" fill="none" stroke="#f97316" stroke-width="1.5" marker-end="url(#arrow-orange)" stroke-dasharray="5,3"/>
<path d="M 580,635 L 580,690 L 110,690 L 110,220" fill="none" stroke="#71717a" stroke-width="1.3" marker-end="url(#arrow-oai)" stroke-dasharray="4,3"/>
<rect x="358.0" y="564" width="154" height="20" rx="4" ry="4" fill="#ffffff" opacity="1"/>
<text x="435" y="578" text-anchor="middle" fill="#f97316" font-size="12">非法结构 / 不安全命令</text>
<rect x="696.0" y="564" width="128" height="20" rx="4" ry="4" fill="#ffffff" opacity="1"/>
<text x="760" y="578" text-anchor="middle" fill="#f97316" font-size="12">回归 fail / error</text>
<rect x="292.0" y="666" width="116" height="20" rx="4" ry="4" fill="#ffffff" opacity="1"/>
<text x="350" y="680" text-anchor="middle" fill="#71717a" font-size="12">修正后重新规划</text>
<circle cx="95" cy="180" r="12" fill="#0d0d0d"/>
<rect x="245" y="140" width="160" height="80" rx="8" ry="8" fill="#ffffff" stroke="#e5e5e5" stroke-width="1.5"/>
<rect x="245" y="140" width="5" height="80" rx="3" ry="3" fill="#10a37f"/>
<text x="325.0" y="176.0" text-anchor="middle" fill="#0d0d0d" font-size="14" font-weight="600">蓝图已接收</text>
<text x="325.0" y="197.0" text-anchor="middle" fill="#6e6e80" font-size="12">RootCauseBlueprint</text>
<rect x="505" y="140" width="160" height="80" rx="8" ry="8" fill="#ffffff" stroke="#e5e5e5" stroke-width="1.5"/>
<rect x="505" y="140" width="5" height="80" rx="3" ry="3" fill="#10a37f"/>
<text x="585.0" y="176.0" text-anchor="middle" fill="#0d0d0d" font-size="14" font-weight="600">Schema 通过</text>
<text x="585.0" y="197.0" text-anchor="middle" fill="#6e6e80" font-size="12">safe command</text>
<rect x="765" y="140" width="160" height="80" rx="8" ry="8" fill="#ffffff" stroke="#e5e5e5" stroke-width="1.5"/>
<rect x="765" y="140" width="5" height="80" rx="3" ry="3" fill="#10a37f"/>
<text x="845.0" y="176.0" text-anchor="middle" fill="#0d0d0d" font-size="14" font-weight="600">计划已生成</text>
<text x="845.0" y="197.0" text-anchor="middle" fill="#6e6e80" font-size="12">PatchPlan JSON</text>
<rect x="765" y="255" width="160" height="80" rx="8" ry="8" fill="#ffffff" stroke="#e5e5e5" stroke-width="1.5"/>
<rect x="765" y="255" width="5" height="80" rx="3" ry="3" fill="#10a37f"/>
<text x="845.0" y="291.0" text-anchor="middle" fill="#0d0d0d" font-size="14" font-weight="600">计划已确认</text>
<text x="845.0" y="312.0" text-anchor="middle" fill="#6e6e80" font-size="12">允许 build</text>
<rect x="505" y="255" width="160" height="80" rx="8" ry="8" fill="#ffffff" stroke="#e5e5e5" stroke-width="1.5"/>
<rect x="505" y="255" width="5" height="80" rx="3" ry="3" fill="#10a37f"/>
<text x="585.0" y="291.0" text-anchor="middle" fill="#0d0d0d" font-size="14" font-weight="600">候选补丁</text>
<text x="585.0" y="312.0" text-anchor="middle" fill="#6e6e80" font-size="12">git diff captured</text>
<rect x="245" y="255" width="160" height="80" rx="8" ry="8" fill="#ffffff" stroke="#e5e5e5" stroke-width="1.5"/>
<rect x="245" y="255" width="5" height="80" rx="3" ry="3" fill="#10a37f"/>
<text x="325.0" y="291.0" text-anchor="middle" fill="#0d0d0d" font-size="14" font-weight="600">回归证据</text>
<text x="325.0" y="312.0" text-anchor="middle" fill="#6e6e80" font-size="12">Agent1 result</text>
<rect x="245" y="390" width="160" height="80" rx="8" ry="8" fill="#ffffff" stroke="#e5e5e5" stroke-width="1.5"/>
<rect x="245" y="390" width="5" height="80" rx="3" ry="3" fill="#10a37f"/>
<text x="325.0" y="426.0" text-anchor="middle" fill="#0d0d0d" font-size="14" font-weight="600">打包校验</text>
<text x="325.0" y="447.0" text-anchor="middle" fill="#6e6e80" font-size="12">ID chain checked</text>
<rect x="505" y="390" width="160" height="80" rx="8" ry="8" fill="#ffffff" stroke="#e5e5e5" stroke-width="1.5"/>
<rect x="505" y="390" width="5" height="80" rx="3" ry="3" fill="#10a37f"/>
<text x="585.0" y="426.0" text-anchor="middle" fill="#0d0d0d" font-size="14" font-weight="600">已验证包</text>
<text x="585.0" y="447.0" text-anchor="middle" fill="#6e6e80" font-size="12">status verified</text>
<rect x="765" y="390" width="160" height="80" rx="8" ry="8" fill="#ffffff" stroke="#e5e5e5" stroke-width="1.5"/>
<rect x="765" y="390" width="5" height="80" rx="3" ry="3" fill="#10a37f"/>
<text x="845.0" y="426.0" text-anchor="middle" fill="#0d0d0d" font-size="14" font-weight="600">Agent5 交接</text>
<text x="845.0" y="447.0" text-anchor="middle" fill="#6e6e80" font-size="12">PR material</text>
<circle cx="1065" cy="430" r="13" fill="none" stroke="#0d0d0d" stroke-width="2"/>
<circle cx="1065" cy="430" r="8" fill="#0d0d0d"/>
<rect x="500" y="560" width="160" height="74" rx="8" ry="8" fill="#fff7ed" stroke="#fed7aa" stroke-width="1.5"/>
<rect x="500" y="560" width="5" height="74" rx="3" ry="3" fill="#f97316"/>
<text x="580.0" y="593.0" text-anchor="middle" fill="#0d0d0d" font-size="14" font-weight="600">失败关闭</text>
<text x="580.0" y="614.0" text-anchor="middle" fill="#6e6e80" font-size="12">reject package</text>
<rect x="409.0" y="152" width="92" height="20" rx="4" ry="4" fill="#ffffff" opacity="1"/>
<text x="455" y="166" text-anchor="middle" fill="#6e6e80" font-size="12">schema valid</text>
<rect x="675.0" y="152" width="80" height="20" rx="4" ry="4" fill="#ffffff" opacity="1"/>
<text x="715" y="166" text-anchor="middle" fill="#6e6e80" font-size="12">read-only</text>
<rect x="965.0" y="222" width="86" height="20" rx="4" ry="4" fill="#ffffff" opacity="1"/>
<text x="1008" y="236" text-anchor="middle" fill="#6e6e80" font-size="12">confirmed</text>
<rect x="674.0" y="269" width="82" height="20" rx="4" ry="4" fill="#ffffff" opacity="1"/>
<text x="715" y="283" text-anchor="middle" fill="#6e6e80" font-size="12">diff exists</text>
<rect x="408.0" y="269" width="94" height="20" rx="4" ry="4" fill="#ffffff" opacity="1"/>
<text x="455" y="283" text-anchor="middle" fill="#6e6e80" font-size="12">agent1 pass</text>
<rect x="97.0" y="359" width="106" height="20" rx="4" ry="4" fill="#ffffff" opacity="1"/>
<text x="150" y="373" text-anchor="middle" fill="#6e6e80" font-size="12">embed + check</text>
<rect x="72" y="705" width="1056" height="34" rx="8" ry="8" fill="#f9fafb" stroke="#e5e5e5"/>
<text x="600" y="727" text-anchor="middle" fill="#6e6e80" font-size="12">完成定义：RootCauseBlueprint、PatchPlan、PatchCandidate、PatchRegressionResult 全部合法，且 VerifiedPatchPackage 的 ID 链一致。</text>
</svg>
