<svg xmlns="http://www.w3.org/2000/svg" viewBox="0 0 1280 900" width="1280" height="900" role="img">
  <style>
    text { font-family: -apple-system, BlinkMacSystemFont, 'Segoe UI', 'Helvetica Neue', Arial, 'PingFang SC', 'Microsoft YaHei', 'Microsoft JhengHei', 'SimHei', sans-serif; }
  </style>
  <defs>
    <marker id="arrow-claude" markerWidth="8" markerHeight="8" refX="7" refY="4" orient="auto">
      <polygon points="0 0, 8 4, 0 8" fill="#5a5a5a"/>
    </marker>
    <filter id="shadow-soft" x="-10%" y="-20%" width="120%" height="150%">
      <feDropShadow dx="0" dy="2" stdDeviation="5" flood-color="#000000" flood-opacity="0.08"/>
    </filter>
  </defs>
  <rect width="1280" height="900" fill="#f8f6f3"/>
  <text x="640" y="42" text-anchor="middle" fill="#1a1a1a" font-size="24" font-weight="700">opencode-agent4 系统架构</text>
<text x="640" y="68" text-anchor="middle" fill="#6a6a6a" font-size="14">从 Agent3 根因蓝图到 Agent5 交接的 OpenCode 扩展包运行结构</text>
<path d="M 280 149 L 330 149" fill="none" stroke="#5a5a5a" stroke-width="2" marker-end="url(#arrow-claude)"/>
<g>
    <rect x="261" y="121" width="88" height="22" rx="7" ry="7" fill="#f8f6f3" fill-opacity="0.95"/>
    <text x="305" y="136" text-anchor="middle" fill="#5a5a5a" font-size="12.5">目标/蓝图</text>
  </g>
<path d="M 190 193 L 190 245 L 275 245 L 275 270" fill="none" stroke="#5a5a5a" stroke-width="2" marker-end="url(#arrow-claude)"/>
<g>
    <rect x="154" y="221" width="142" height="22" rx="7" ry="7" fill="#f8f6f3" fill-opacity="0.95"/>
    <text x="225" y="236" text-anchor="middle" fill="#5a5a5a" font-size="12.5">RootCauseBlueprint</text>
  </g>
<path d="M 430 193 L 430 245 L 550 245 L 550 270" fill="none" stroke="#5a5a5a" stroke-width="2" marker-end="url(#arrow-claude)"/>
<g>
    <rect x="433" y="221" width="118" height="22" rx="7" ry="7" fill="#f8f6f3" fill-opacity="0.95"/>
    <text x="492" y="236" text-anchor="middle" fill="#5a5a5a" font-size="12.5">/ysclaw-agent4</text>
  </g>
<path d="M 390 325 L 435 325" fill="none" stroke="#5a5a5a" stroke-width="2" marker-end="url(#arrow-claude)"/>
<g>
    <rect x="384" y="295" width="58" height="22" rx="7" ry="7" fill="#f8f6f3" fill-opacity="0.95"/>
    <text x="413" y="310" text-anchor="middle" fill="#5a5a5a" font-size="12.5">注册</text>
  </g>
<path d="M 665 325 L 710 325" fill="none" stroke="#5a5a5a" stroke-width="2" marker-end="url(#arrow-claude)"/>
<g>
    <rect x="659" y="295" width="58" height="22" rx="7" ry="7" fill="#f8f6f3" fill-opacity="0.95"/>
    <text x="688" y="310" text-anchor="middle" fill="#5a5a5a" font-size="12.5">委托</text>
  </g>
<path d="M 940 325 L 980 325" fill="none" stroke="#5a5a5a" stroke-width="2" marker-end="url(#arrow-claude)"/>
<g>
    <rect x="931" y="295" width="58" height="22" rx="7" ry="7" fill="#f8f6f3" fill-opacity="0.95"/>
    <text x="960" y="310" text-anchor="middle" fill="#5a5a5a" font-size="12.5">协同</text>
  </g>
<path d="M 825 380 L 825 430 L 215 430 L 215 475" fill="none" stroke="#5a5a5a" stroke-width="2" marker-end="url(#arrow-claude)"/>
<g>
    <rect x="468" y="405" width="104" height="22" rx="7" ry="7" fill="#f8f6f3" fill-opacity="0.95"/>
    <text x="520" y="420" text-anchor="middle" fill="#5a5a5a" font-size="12.5">加载 skills</text>
  </g>
<path d="M 825 380 L 825 430 L 495 430 L 495 475" fill="none" stroke="#5a5a5a" stroke-width="2" marker-end="url(#arrow-claude)"/>
<g>
    <rect x="591" y="433" width="118" height="22" rx="7" ry="7" fill="#f8f6f3" fill-opacity="0.95"/>
    <text x="650" y="448" text-anchor="middle" fill="#5a5a5a" font-size="12.5">约束 schemas</text>
  </g>
<path d="M 825 380 L 825 430 L 775 430 L 775 475" fill="none" stroke="#5a5a5a" stroke-width="2" marker-end="url(#arrow-claude)"/>
<g>
    <rect x="741" y="433" width="102" height="22" rx="7" ry="7" fill="#f8f6f3" fill-opacity="0.95"/>
    <text x="792" y="448" text-anchor="middle" fill="#5a5a5a" font-size="12.5">调用 tools</text>
  </g>
<path d="M 825 380 L 825 430 L 1055 430 L 1055 475" fill="none" stroke="#5a5a5a" stroke-width="2" marker-end="url(#arrow-claude)"/>
<g>
    <rect x="912" y="405" width="96" height="22" rx="7" ry="7" fill="#f8f6f3" fill-opacity="0.95"/>
    <text x="960" y="420" text-anchor="middle" fill="#5a5a5a" font-size="12.5">验证测试</text>
  </g>
<path d="M 775 575 L 775 640 L 365 640 L 365 690" fill="none" stroke="#5a5a5a" stroke-width="2" marker-end="url(#arrow-claude)"/>
<g>
    <rect x="503" y="615" width="134" height="22" rx="7" ry="7" fill="#f8f6f3" fill-opacity="0.95"/>
    <text x="570" y="630" text-anchor="middle" fill="#5a5a5a" font-size="12.5">patch_regression</text>
  </g>
<path d="M 495 735 L 545 735" fill="none" stroke="#5a5a5a" stroke-width="2" marker-end="url(#arrow-claude)"/>
<g>
    <rect x="480" y="705" width="80" height="22" rx="7" ry="7" fill="#f8f6f3" fill-opacity="0.95"/>
    <text x="520" y="720" text-anchor="middle" fill="#5a5a5a" font-size="12.5">归一化</text>
  </g>
<path d="M 795 735 L 845 735" fill="none" stroke="#5a5a5a" stroke-width="2" marker-end="url(#arrow-claude)"/>
<g>
    <rect x="787" y="705" width="66" height="22" rx="7" ry="7" fill="#f8f6f3" fill-opacity="0.95"/>
    <text x="820" y="720" text-anchor="middle" fill="#5a5a5a" font-size="12.5">交接</text>
  </g>
<path d="M 495 575 L 495 625 L 670 625 L 670 690" fill="none" stroke="#5a5a5a" stroke-width="2" stroke-dasharray="5,3" marker-end="url(#arrow-claude)"/>
<g>
    <rect x="534" y="601" width="92" height="22" rx="7" ry="7" fill="#f8f6f3" fill-opacity="0.95"/>
    <text x="580" y="616" text-anchor="middle" fill="#5a5a5a" font-size="12.5">ID 一致性</text>
  </g>
<path d="M 1055 575 L 1055 625 L 670 625 L 670 690" fill="none" stroke="#5a5a5a" stroke-width="2" stroke-dasharray="3,3" marker-end="url(#arrow-claude)"/>
<g>
    <rect x="884" y="601" width="92" height="22" rx="7" ry="7" fill="#f8f6f3" fill-opacity="0.95"/>
    <text x="930" y="616" text-anchor="middle" fill="#5a5a5a" font-size="12.5">测试信号</text>
  </g>
<text x="34" y="154" fill="#6a6a6a" font-size="14" font-weight="600">输入</text>
<text x="34" y="330" fill="#6a6a6a" font-size="14" font-weight="600">运行时</text>
<text x="34" y="532" fill="#6a6a6a" font-size="14" font-weight="600">包内能力</text>
<text x="34" y="740" fill="#6a6a6a" font-size="14" font-weight="600">验证/交接</text>
<g>
    <rect x="90" y="105" width="190" height="88" rx="12" ry="12" fill="#a8c5e6" stroke="#4a4a4a" stroke-width="2.5" filter="url(#shadow-soft)"/>
    <text x="185" y="135" text-anchor="middle" fill="#1a1a1a" font-size="16" font-weight="600">Agent3 根因诊断</text>
    <text x="185" y="158" text-anchor="middle" fill="#6a6a6a" font-size="13">RootCauseBlueprint</text>
<text x="185" y="177" text-anchor="middle" fill="#6a6a6a" font-size="13">candidateFiles / tests</text>
  </g>
<g>
    <rect x="330" y="105" width="200" height="88" rx="12" ry="12" fill="#a8c5e6" stroke="#4a4a4a" stroke-width="2.5" filter="url(#shadow-soft)"/>
    <text x="430" y="135" text-anchor="middle" fill="#1a1a1a" font-size="16" font-weight="600">用户 + OpenCode</text>
    <text x="430" y="158" text-anchor="middle" fill="#6a6a6a" font-size="13">/ysclaw-agent4</text>
<text x="430" y="177" text-anchor="middle" fill="#6a6a6a" font-size="13">自然语言或蓝图输入</text>
  </g>
<g>
    <rect x="160" y="270" width="230" height="110" rx="12" ry="12" fill="#f4e4c1" stroke="#4a4a4a" stroke-width="2.5" filter="url(#shadow-soft)"/>
    <text x="275" y="300" text-anchor="middle" fill="#1a1a1a" font-size="16" font-weight="600">插件入口</text>
    <text x="275" y="323" text-anchor="middle" fill="#6a6a6a" font-size="13">.opencode/plugins</text>
<text x="275" y="342" text-anchor="middle" fill="#6a6a6a" font-size="13">注册 skills / commands</text>
<text x="275" y="361" text-anchor="middle" fill="#6a6a6a" font-size="13">注入 bootstrap</text>
  </g>
<g>
    <rect x="435" y="270" width="230" height="110" rx="12" ry="12" fill="#f4e4c1" stroke="#4a4a4a" stroke-width="2.5" filter="url(#shadow-soft)"/>
    <text x="550" y="300" text-anchor="middle" fill="#1a1a1a" font-size="16" font-weight="600">命令与 Agent</text>
    <text x="550" y="323" text-anchor="middle" fill="#6a6a6a" font-size="13">/ysclaw-agent4</text>
<text x="550" y="342" text-anchor="middle" fill="#6a6a6a" font-size="13">ysclaw-agent4-patch</text>
<text x="550" y="361" text-anchor="middle" fill="#6a6a6a" font-size="13">安全默认权限</text>
  </g>
<g>
    <rect x="710" y="270" width="230" height="110" rx="12" ry="12" fill="#9dd4c7" stroke="#4a4a4a" stroke-width="2.5" filter="url(#shadow-soft)"/>
    <text x="825" y="300" text-anchor="middle" fill="#1a1a1a" font-size="16" font-weight="600">Comet 编排</text>
    <text x="825" y="323" text-anchor="middle" fill="#6a6a6a" font-size="13">open → design → build</text>
<text x="825" y="342" text-anchor="middle" fill="#6a6a6a" font-size="13">verify → archive</text>
<text x="825" y="361" text-anchor="middle" fill="#6a6a6a" font-size="13">阶段自动检测</text>
  </g>
<g>
    <rect x="980" y="270" width="220" height="110" rx="12" ry="12" fill="#9dd4c7" stroke="#4a4a4a" stroke-width="2.5" filter="url(#shadow-soft)"/>
    <text x="1090" y="300" text-anchor="middle" fill="#1a1a1a" font-size="16" font-weight="600">OpenSpec + Superpowers</text>
    <text x="1090" y="323" text-anchor="middle" fill="#6a6a6a" font-size="13">WHAT / HOW 分工</text>
<text x="1090" y="342" text-anchor="middle" fill="#6a6a6a" font-size="13">设计、TDD、收尾</text>
<text x="1090" y="361" text-anchor="middle" fill="#6a6a6a" font-size="13">分支与归档</text>
  </g>
<g>
    <rect x="100" y="475" width="230" height="100" rx="12" ry="12" fill="#9dd4c7" stroke="#4a4a4a" stroke-width="2.5" filter="url(#shadow-soft)"/>
    <text x="215" y="505" text-anchor="middle" fill="#1a1a1a" font-size="16" font-weight="600">skills/</text>
    <text x="215" y="528" text-anchor="middle" fill="#6a6a6a" font-size="13">Agent4 + Comet</text>
<text x="215" y="547" text-anchor="middle" fill="#6a6a6a" font-size="13">OpenSpec + Superpowers</text>
  </g>
<g>
    <rect x="380" y="475" width="230" height="100" rx="12" ry="12" fill="#e8e6e3" stroke="#4a4a4a" stroke-width="2.5" filter="url(#shadow-soft)"/>
    <text x="495" y="505" text-anchor="middle" fill="#1a1a1a" font-size="16" font-weight="600">schemas/</text>
    <text x="495" y="528" text-anchor="middle" fill="#6a6a6a" font-size="13">五类 JSON 契约</text>
<text x="495" y="547" text-anchor="middle" fill="#6a6a6a" font-size="13">additionalProperties: false</text>
  </g>
<g>
    <rect x="660" y="475" width="230" height="100" rx="12" ry="12" fill="#f4e4c1" stroke="#4a4a4a" stroke-width="2.5" filter="url(#shadow-soft)"/>
    <text x="775" y="505" text-anchor="middle" fill="#1a1a1a" font-size="16" font-weight="600">tools/</text>
    <text x="775" y="528" text-anchor="middle" fill="#6a6a6a" font-size="13">ysclaw-agent4-tools.js</text>
<text x="775" y="547" text-anchor="middle" fill="#6a6a6a" font-size="13">plan / candidate / package</text>
  </g>
<g>
    <rect x="940" y="475" width="230" height="100" rx="12" ry="12" fill="#e8e6e3" stroke="#4a4a4a" stroke-width="2.5" filter="url(#shadow-soft)"/>
    <text x="1055" y="505" text-anchor="middle" fill="#1a1a1a" font-size="16" font-weight="600">tests/</text>
    <text x="1055" y="528" text-anchor="middle" fill="#6a6a6a" font-size="13">插件加载 / schema</text>
<text x="1055" y="547" text-anchor="middle" fill="#6a6a6a" font-size="13">安全失败关闭回归</text>
  </g>
<g>
    <rect x="235" y="690" width="260" height="90" rx="12" ry="12" fill="#a8c5e6" stroke="#4a4a4a" stroke-width="2.5" filter="url(#shadow-soft)"/>
    <text x="365" y="720" text-anchor="middle" fill="#1a1a1a" font-size="16" font-weight="600">Agent1 回归</text>
    <text x="365" y="743" text-anchor="middle" fill="#6a6a6a" font-size="13">agent1 patch_regression</text>
<text x="365" y="762" text-anchor="middle" fill="#6a6a6a" font-size="13">白名单命令</text>
  </g>
<g>
    <rect x="545" y="690" width="250" height="90" rx="12" ry="12" fill="#e8e6e3" stroke="#4a4a4a" stroke-width="2.5" filter="url(#shadow-soft)"/>
    <text x="670" y="720" text-anchor="middle" fill="#1a1a1a" font-size="16" font-weight="600">VerifiedPatchPackage</text>
    <text x="670" y="743" text-anchor="middle" fill="#6a6a6a" font-size="13">git diff + 回归证据</text>
<text x="670" y="762" text-anchor="middle" fill="#6a6a6a" font-size="13">结构合法才交付</text>
  </g>
<g>
    <rect x="845" y="690" width="240" height="90" rx="12" ry="12" fill="#a8c5e6" stroke="#4a4a4a" stroke-width="2.5" filter="url(#shadow-soft)"/>
    <text x="965" y="720" text-anchor="middle" fill="#1a1a1a" font-size="16" font-weight="600">Agent5</text>
    <text x="965" y="743" text-anchor="middle" fill="#6a6a6a" font-size="13">PR / 提交材料</text>
<text x="965" y="762" text-anchor="middle" fill="#6a6a6a" font-size="13">保留验证证据</text>
  </g>
<g>
    <rect x="1015" y="800" width="240" height="82" rx="10" ry="10" fill="#fffdf9" stroke="#4a4a4a" stroke-width="1.5"/>
    <text x="1033" y="824" fill="#1a1a1a" font-size="13" font-weight="600">Legend</text>
    <line x1="1033" y1="837" x2="1067" y2="837" stroke="#5a5a5a" stroke-width="2" marker-end="url(#arrow-claude)"/>
    <text x="1079" y="842" fill="#6a6a6a" font-size="12">主数据/产物流</text>
<line x1="1033" y1="861" x2="1067" y2="861" stroke="#5a5a5a" stroke-width="2" stroke-dasharray="5,3" marker-end="url(#arrow-claude)"/>
    <text x="1079" y="866" fill="#6a6a6a" font-size="12">校验/证据约束</text>
  </g>
</svg>
